<svg id="visual" viewBox="0 0 900 600" width="900" height="600" xmlns="http://www.w3.org/2000/svg" xmlns:xlink="http://www.w3.org/1999/xlink" version="1.1"><rect x="0" y="0" width="900" height="600" fill="#CCCCCC"></rect><defs><linearGradient id="grad1_0" x1="33.3%" y1="0%" x2="100%" y2="100%"><stop offset="20%" stop-color="#cccccc" stop-opacity="1"></stop><stop offset="80%" stop-color="#cccccc" stop-opacity="1"></stop></linearGradient></defs><defs><linearGradient id="grad2_0" x1="0%" y1="0%" x2="66.7%" y2="100%"><stop offset="20%" stop-color="#cccccc" stop-opacity="1"></stop><stop offset="80%" stop-color="#cccccc" stop-opacity="1"></stop></linearGradient></defs><g transform="translate(900, 0)"><path d="M0 378.6C-45.3 365.5 -90.6 352.5 -139.7 337.2C-188.7 321.9 -241.5 304.4 -267.7 267.7C-293.9 231 -293.6 175.2 -307.7 127.4C-321.7 79.6 -350.1 39.8 -378.6 0L0 0Z" fill="#ffffff"></path></g><g transform="translate(0, 600)"><path d="M0 -378.6C51 -375 101.9 -371.5 144.9 -349.8C187.8 -328.1 222.8 -288.2 248.9 -248.9C275 -209.6 292.1 -170.7 312.3 -129.3C332.4 -87.9 355.5 -44 378.6 0L0 0Z" fill="#ffffff"></path></g></svg>